<?xml version="1.0" standalone="no"?>
<!DOCTYPE svg PUBLIC "-//W3C//DTD SVG 20010904//EN"
 "http://www.w3.org/TR/2001/REC-SVG-20010904/DTD/svg10.dtd">
<svg version="1.0" xmlns="http://www.w3.org/2000/svg"
 width="600.000000pt" height="600.000000pt" viewBox="0 0 600.000000 600.000000"
 preserveAspectRatio="xMidYMid meet">
<metadata>
Created by potrace 1.11, written by Peter Selinger 2001-2013
</metadata>
<g transform="translate(0.000000,600.000000) scale(0.100000,-0.100000)"
fill="#000000" stroke="none">
<path d="M196 5984 c-36 -11 -65 -31 -107 -73 -99 -99 -89 211 -89 -2911 0
-3122 -9 -2812 89 -2911 99 -98 -211 -89 2911 -89 3122 0 2812 -9 2911 89 98
99 89 -211 89 2911 0 3122 9 2812 -89 2911 -99 99 211 89 -2915 88 -2421 0
-2757 -2 -2800 -15z m2932 -659 c73 -31 112 -86 112 -159 0 -81 -33 -134 -105
-167 -37 -17 -72 -19 -423 -19 -314 0 -396 -3 -455 -16 -379 -84 -653 -493
-761 -1134 -33 -193 -45 -352 -56 -740 -10 -342 -25 -513 -66 -721 -76 -391
-205 -708 -392 -962 -56 -76 -147 -122 -224 -115 -43 5 -57 11 -84 41 -55 60
-65 145 -28 235 7 18 38 70 68 115 119 179 212 392 270 617 71 276 93 471 106
910 10 371 26 542 71 765 92 461 250 796 489 1035 176 177 386 285 616 319 32
5 231 9 442 10 325 1 388 -1 420 -14z m-87 -485 c34 -19 49 -64 49 -152 l0
-83 53 -71 c28 -39 64 -91 78 -115 l26 -44 393 -100 c239 -60 406 -108 424
-120 65 -43 67 -55 64 -407 l-3 -318 -33 -32 -32 -33 -218 0 c-189 0 -221 2
-249 18 -21 11 -35 27 -38 45 -14 68 -49 103 -126 126 l-46 13 -16 -96 c-20
-121 -58 -253 -101 -352 -35 -81 -123 -224 -156 -254 -20 -18 -20 -30 -20
-955 l0 -937 41 -6 c50 -7 76 -29 89 -76 25 -91 2 -192 -50 -218 -19 -10 -142
-13 -507 -13 l-483 0 -32 29 c-33 29 -33 30 -33 124 0 87 2 98 24 121 15 16
41 29 63 32 l38 7 0 936 0 936 -45 60 c-99 132 -186 341 -222 538 -27 142 -24
449 5 584 44 205 118 380 217 511 44 59 45 61 45 138 0 89 19 141 60 161 32
16 711 19 741 3z m1672 -2894 c372 -701 677 -1277 677 -1280 0 -3 -389 -6
-865 -6 l-865 0 0 1280 0 1280 188 0 187 0 678 -1274z"/>
</g>
</svg>
